<?xml version="1.0" encoding="utf-8" standalone="no"?>
<!DOCTYPE svg PUBLIC "-//W3C//DTD SVG 1.1//EN"
  "http://www.w3.org/Graphics/SVG/1.1/DTD/svg11.dtd">
<svg xmlns:xlink="http://www.w3.org/1999/xlink" width="460.8pt" height="345.6pt" viewBox="0 0 460.8 345.6" xmlns="http://www.w3.org/2000/svg" version="1.1">
 <metadata>
  <rdf:RDF xmlns:dc="http://purl.org/dc/elements/1.1/" xmlns:cc="http://creativecommons.org/ns#" xmlns:rdf="http://www.w3.org/1999/02/22-rdf-syntax-ns#">
   <cc:Work>
    <dc:type rdf:resource="http://purl.org/dc/dcmitype/StillImage"/>
    <dc:date>2023-07-26T15:48:33.254697</dc:date>
    <dc:format>image/svg+xml</dc:format>
    <dc:creator>
     <cc:Agent>
      <dc:title>Matplotlib v3.7.0, https://matplotlib.org/</dc:title>
     </cc:Agent>
    </dc:creator>
   </cc:Work>
  </rdf:RDF>
 </metadata>
 <defs>
  <style type="text/css">*{stroke-linejoin: round; stroke-linecap: butt}</style>
 </defs>
 <g id="figure_1">
  <g id="patch_1">
   <path d="M 0 345.6 
L 460.8 345.6 
L 460.8 0 
L 0 0 
z
" style="fill: #ffffff"/>
  </g>
  <g id="axes_1">
   <g id="patch_2">
    <path d="M 57.6 307.584 
L 414.72 307.584 
L 414.72 41.472 
L 57.6 41.472 
z
" style="fill: #ffffff"/>
   </g>
   <g id="PolyCollection_1">
    <defs>
     <path id="m2daa2a522a" d="M 414.72 -38.016 
L 414.72 -38.016 
L 405.792 -38.016 
L 396.864 -38.016 
L 387.936 -38.016 
L 379.008 -37.157544 
L 370.08 -39.375382 
L 361.152 -38.016 
L 352.224 -38.61793 
L 343.296 -38.016 
L 334.368 -38.016 
L 325.44 -46.049461 
L 316.512 -77.986326 
L 307.584 -88.738389 
L 298.656 -81.420761 
L 289.728 -77.598292 
L 280.8 -76.427565 
L 271.872 -74.509823 
L 262.944 -107.677333 
L 254.016 -123.230192 
L 245.088 -142.572392 
L 236.16 -160.778628 
L 227.232 -164.230286 
L 218.304 -169.869102 
L 209.376 -192.195658 
L 200.448 -198.325266 
L 191.52 -212.317722 
L 182.592 -220.252843 
L 173.664 -228.560734 
L 164.736 -233.501681 
L 155.808 -233.048418 
L 146.88 -223.431963 
L 137.952 -203.890512 
L 129.024 -182.239971 
L 120.096 -170.888816 
L 111.168 -163.116943 
L 102.24 -156.920937 
L 93.312 -151.59083 
L 84.384 -145.303225 
L 75.456 -130.731766 
L 66.528 -96.868647 
L 57.6 -38.016 
L 57.6 -38.016 
L 57.6 -38.016 
L 66.528 -96.878972 
L 75.456 -130.750568 
L 84.384 -145.364333 
L 93.312 -151.753251 
L 102.24 -157.365394 
L 111.168 -164.256651 
L 120.096 -173.180742 
L 129.024 -185.769216 
L 137.952 -205.989313 
L 146.88 -224.635722 
L 155.808 -234.103066 
L 164.736 -236.725069 
L 173.664 -233.883719 
L 182.592 -226.601388 
L 191.52 -216.996896 
L 200.448 -204.974398 
L 209.376 -200.690438 
L 218.304 -178.284311 
L 227.232 -171.822163 
L 236.16 -165.826068 
L 245.088 -150.967869 
L 254.016 -132.962895 
L 262.944 -116.968025 
L 271.872 -84.701579 
L 280.8 -89.969686 
L 289.728 -95.607675 
L 298.656 -97.032418 
L 307.584 -109.312333 
L 316.512 -96.806146 
L 325.44 -53.604408 
L 334.368 -38.016 
L 343.296 -38.016 
L 352.224 -47.799946 
L 361.152 -38.016 
L 370.08 -54.741718 
L 379.008 -51.512754 
L 387.936 -38.016 
L 396.864 -38.016 
L 405.792 -38.016 
L 414.72 -38.016 
z
" style="stroke: #000000; stroke-opacity: 0.3"/>
    </defs>
    <g clip-path="url(#p2ce085072b)">
     <use xlink:href="#m2daa2a522a" x="0" y="345.6" style="fill-opacity: 0.3; stroke: #000000; stroke-opacity: 0.3"/>
    </g>
   </g>
   <g id="PolyCollection_2">
    <defs>
     <path id="m0a5be70bcc" d="M 396.864 -38.016 
L 396.864 -38.016 
L 387.936 -38.016 
L 379.008 -39.501795 
L 370.08 -82.324214 
L 361.152 -95.377833 
L 352.224 -96.524631 
L 343.296 -83.614988 
L 334.368 -64.944875 
L 325.44 -81.120748 
L 316.512 -85.228118 
L 307.584 -76.730931 
L 298.656 -76.529558 
L 289.728 -70.299555 
L 280.8 -66.452566 
L 271.872 -57.630486 
L 262.944 -52.775347 
L 254.016 -48.772845 
L 245.088 -45.840485 
L 236.16 -45.282737 
L 227.232 -47.982958 
L 218.304 -50.026408 
L 209.376 -53.382928 
L 200.448 -58.033169 
L 191.52 -62.6517 
L 182.592 -68.202098 
L 173.664 -74.316419 
L 164.736 -79.840092 
L 155.808 -86.468421 
L 146.88 -91.408612 
L 137.952 -95.911355 
L 129.024 -97.001533 
L 120.096 -96.086421 
L 111.168 -93.148623 
L 102.24 -88.786214 
L 93.312 -82.561527 
L 84.384 -75.390541 
L 84.384 -75.390541 
L 75.456 -66.242135 
L 66.528 -55.16352 
L 66.528 -55.16352 
L 66.528 -55.16352 
L 57.6 -41.615377 
L 57.6 -41.809172 
L 57.6 -41.809172 
L 66.528 -55.336003 
L 66.528 -55.336003 
L 66.528 -55.336003 
L 75.456 -66.487706 
L 84.384 -75.797213 
L 84.384 -75.797213 
L 93.312 -83.184371 
L 102.24 -89.58962 
L 111.168 -94.159938 
L 120.096 -97.271972 
L 129.024 -98.333522 
L 137.952 -97.441481 
L 146.88 -93.250985 
L 155.808 -88.643697 
L 164.736 -82.35811 
L 173.664 -76.823442 
L 182.592 -70.571486 
L 191.52 -64.515815 
L 200.448 -59.155537 
L 209.376 -54.758303 
L 218.304 -52.038921 
L 227.232 -51.065674 
L 236.16 -49.312237 
L 245.088 -51.169342 
L 254.016 -54.678276 
L 262.944 -59.475406 
L 271.872 -65.300469 
L 280.8 -74.151669 
L 289.728 -78.545363 
L 298.656 -86.457379 
L 307.584 -86.345347 
L 316.512 -96.926206 
L 325.44 -89.739062 
L 334.368 -73.364626 
L 343.296 -95.599159 
L 352.224 -110.232839 
L 361.152 -107.87115 
L 370.08 -93.400902 
L 379.008 -47.384154 
L 387.936 -38.016 
L 396.864 -38.016 
z
" style="stroke: #000000; stroke-opacity: 0.5"/>
    </defs>
    <g clip-path="url(#p2ce085072b)">
     <use xlink:href="#m0a5be70bcc" x="0" y="345.6" style="fill-opacity: 0.5; stroke: #000000; stroke-opacity: 0.5"/>
    </g>
   </g>
   <g id="matplotlib.axis_1">
    <g id="xtick_1">
     <g id="line2d_1">
      <defs>
       <path id="me95064d2c8" d="M 0 0 
L 0 3.5 
" style="stroke: #000000; stroke-width: 0.8"/>
      </defs>
      <g>
       <use xlink:href="#me95064d2c8" x="414.72" y="307.584" style="stroke: #000000; stroke-width: 0.8"/>
      </g>
     </g>
     <g id="text_1">
      <!-- −2.00 -->
      <g transform="translate(399.397344 322.182437) scale(0.1 -0.1)">
       <defs>
        <path id="DejaVuSans-2212" d="M 678 2272 
L 4684 2272 
L 4684 1741 
L 678 1741 
L 678 2272 
z
" transform="scale(0.015625)"/>
        <path id="DejaVuSans-32" d="M 1228 531 
L 3431 531 
L 3431 0 
L 469 0 
L 469 531 
Q 828 903 1448 1529 
Q 2069 2156 2228 2338 
Q 2531 2678 2651 2914 
Q 2772 3150 2772 3378 
Q 2772 3750 2511 3984 
Q 2250 4219 1831 4219 
Q 1534 4219 1204 4116 
Q 875 4013 500 3803 
L 500 4441 
Q 881 4594 1212 4672 
Q 1544 4750 1819 4750 
Q 2544 4750 2975 4387 
Q 3406 4025 3406 3419 
Q 3406 3131 3298 2873 
Q 3191 2616 2906 2266 
Q 2828 2175 2409 1742 
Q 1991 1309 1228 531 
z
" transform="scale(0.015625)"/>
        <path id="DejaVuSans-2e" d="M 684 794 
L 1344 794 
L 1344 0 
L 684 0 
L 684 794 
z
" transform="scale(0.015625)"/>
        <path id="DejaVuSans-30" d="M 2034 4250 
Q 1547 4250 1301 3770 
Q 1056 3291 1056 2328 
Q 1056 1369 1301 889 
Q 1547 409 2034 409 
Q 2525 409 2770 889 
Q 3016 1369 3016 2328 
Q 3016 3291 2770 3770 
Q 2525 4250 2034 4250 
z
M 2034 4750 
Q 2819 4750 3233 4129 
Q 3647 3509 3647 2328 
Q 3647 1150 3233 529 
Q 2819 -91 2034 -91 
Q 1250 -91 836 529 
Q 422 1150 422 2328 
Q 422 3509 836 4129 
Q 1250 4750 2034 4750 
z
" transform="scale(0.015625)"/>
       </defs>
       <use xlink:href="#DejaVuSans-2212"/>
       <use xlink:href="#DejaVuSans-32" x="83.789062"/>
       <use xlink:href="#DejaVuSans-2e" x="147.412109"/>
       <use xlink:href="#DejaVuSans-30" x="179.199219"/>
       <use xlink:href="#DejaVuSans-30" x="242.822266"/>
      </g>
     </g>
    </g>
    <g id="xtick_2">
     <g id="line2d_2">
      <g>
       <use xlink:href="#me95064d2c8" x="370.08" y="307.584" style="stroke: #000000; stroke-width: 0.8"/>
      </g>
     </g>
     <g id="text_2">
      <!-- −1.75 -->
      <g transform="translate(354.757344 322.182437) scale(0.1 -0.1)">
       <defs>
        <path id="DejaVuSans-31" d="M 794 531 
L 1825 531 
L 1825 4091 
L 703 3866 
L 703 4441 
L 1819 4666 
L 2450 4666 
L 2450 531 
L 3481 531 
L 3481 0 
L 794 0 
L 794 531 
z
" transform="scale(0.015625)"/>
        <path id="DejaVuSans-37" d="M 525 4666 
L 3525 4666 
L 3525 4397 
L 1831 0 
L 1172 0 
L 2766 4134 
L 525 4134 
L 525 4666 
z
" transform="scale(0.015625)"/>
        <path id="DejaVuSans-35" d="M 691 4666 
L 3169 4666 
L 3169 4134 
L 1269 4134 
L 1269 2991 
Q 1406 3038 1543 3061 
Q 1681 3084 1819 3084 
Q 2600 3084 3056 2656 
Q 3513 2228 3513 1497 
Q 3513 744 3044 326 
Q 2575 -91 1722 -91 
Q 1428 -91 1123 -41 
Q 819 9 494 109 
L 494 744 
Q 775 591 1075 516 
Q 1375 441 1709 441 
Q 2250 441 2565 725 
Q 2881 1009 2881 1497 
Q 2881 1984 2565 2268 
Q 2250 2553 1709 2553 
Q 1456 2553 1204 2497 
Q 953 2441 691 2322 
L 691 4666 
z
" transform="scale(0.015625)"/>
       </defs>
       <use xlink:href="#DejaVuSans-2212"/>
       <use xlink:href="#DejaVuSans-31" x="83.789062"/>
       <use xlink:href="#DejaVuSans-2e" x="147.412109"/>
       <use xlink:href="#DejaVuSans-37" x="179.199219"/>
       <use xlink:href="#DejaVuSans-35" x="242.822266"/>
      </g>
     </g>
    </g>
    <g id="xtick_3">
     <g id="line2d_3">
      <g>
       <use xlink:href="#me95064d2c8" x="325.44" y="307.584" style="stroke: #000000; stroke-width: 0.8"/>
      </g>
     </g>
     <g id="text_3">
      <!-- −1.50 -->
      <g transform="translate(310.117344 322.182437) scale(0.1 -0.1)">
       <use xlink:href="#DejaVuSans-2212"/>
       <use xlink:href="#DejaVuSans-31" x="83.789062"/>
       <use xlink:href="#DejaVuSans-2e" x="147.412109"/>
       <use xlink:href="#DejaVuSans-35" x="179.199219"/>
       <use xlink:href="#DejaVuSans-30" x="242.822266"/>
      </g>
     </g>
    </g>
    <g id="xtick_4">
     <g id="line2d_4">
      <g>
       <use xlink:href="#me95064d2c8" x="280.8" y="307.584" style="stroke: #000000; stroke-width: 0.8"/>
      </g>
     </g>
     <g id="text_4">
      <!-- −1.25 -->
      <g transform="translate(265.477344 322.182437) scale(0.1 -0.1)">
       <use xlink:href="#DejaVuSans-2212"/>
       <use xlink:href="#DejaVuSans-31" x="83.789062"/>
       <use xlink:href="#DejaVuSans-2e" x="147.412109"/>
       <use xlink:href="#DejaVuSans-32" x="179.199219"/>
       <use xlink:href="#DejaVuSans-35" x="242.822266"/>
      </g>
     </g>
    </g>
    <g id="xtick_5">
     <g id="line2d_5">
      <g>
       <use xlink:href="#me95064d2c8" x="236.16" y="307.584" style="stroke: #000000; stroke-width: 0.8"/>
      </g>
     </g>
     <g id="text_5">
      <!-- −1.00 -->
      <g transform="translate(220.837344 322.182437) scale(0.1 -0.1)">
       <use xlink:href="#DejaVuSans-2212"/>
       <use xlink:href="#DejaVuSans-31" x="83.789062"/>
       <use xlink:href="#DejaVuSans-2e" x="147.412109"/>
       <use xlink:href="#DejaVuSans-30" x="179.199219"/>
       <use xlink:href="#DejaVuSans-30" x="242.822266"/>
      </g>
     </g>
    </g>
    <g id="xtick_6">
     <g id="line2d_6">
      <g>
       <use xlink:href="#me95064d2c8" x="191.52" y="307.584" style="stroke: #000000; stroke-width: 0.8"/>
      </g>
     </g>
     <g id="text_6">
      <!-- −0.75 -->
      <g transform="translate(176.197344 322.182437) scale(0.1 -0.1)">
       <use xlink:href="#DejaVuSans-2212"/>
       <use xlink:href="#DejaVuSans-30" x="83.789062"/>
       <use xlink:href="#DejaVuSans-2e" x="147.412109"/>
       <use xlink:href="#DejaVuSans-37" x="179.199219"/>
       <use xlink:href="#DejaVuSans-35" x="242.822266"/>
      </g>
     </g>
    </g>
    <g id="xtick_7">
     <g id="line2d_7">
      <g>
       <use xlink:href="#me95064d2c8" x="146.88" y="307.584" style="stroke: #000000; stroke-width: 0.8"/>
      </g>
     </g>
     <g id="text_7">
      <!-- −0.50 -->
      <g transform="translate(131.557344 322.182437) scale(0.1 -0.1)">
       <use xlink:href="#DejaVuSans-2212"/>
       <use xlink:href="#DejaVuSans-30" x="83.789062"/>
       <use xlink:href="#DejaVuSans-2e" x="147.412109"/>
       <use xlink:href="#DejaVuSans-35" x="179.199219"/>
       <use xlink:href="#DejaVuSans-30" x="242.822266"/>
      </g>
     </g>
    </g>
    <g id="xtick_8">
     <g id="line2d_8">
      <g>
       <use xlink:href="#me95064d2c8" x="102.24" y="307.584" style="stroke: #000000; stroke-width: 0.8"/>
      </g>
     </g>
     <g id="text_8">
      <!-- −0.25 -->
      <g transform="translate(86.917344 322.182437) scale(0.1 -0.1)">
       <use xlink:href="#DejaVuSans-2212"/>
       <use xlink:href="#DejaVuSans-30" x="83.789062"/>
       <use xlink:href="#DejaVuSans-2e" x="147.412109"/>
       <use xlink:href="#DejaVuSans-32" x="179.199219"/>
       <use xlink:href="#DejaVuSans-35" x="242.822266"/>
      </g>
     </g>
    </g>
    <g id="xtick_9">
     <g id="line2d_9">
      <g>
       <use xlink:href="#me95064d2c8" x="57.6" y="307.584" style="stroke: #000000; stroke-width: 0.8"/>
      </g>
     </g>
     <g id="text_9">
      <!-- 0.00 -->
      <g transform="translate(46.467188 322.182437) scale(0.1 -0.1)">
       <use xlink:href="#DejaVuSans-30"/>
       <use xlink:href="#DejaVuSans-2e" x="63.623047"/>
       <use xlink:href="#DejaVuSans-30" x="95.410156"/>
       <use xlink:href="#DejaVuSans-30" x="159.033203"/>
      </g>
     </g>
    </g>
    <g id="text_10">
     <!-- Chromaticity $Q'_v$ value -->
     <g transform="translate(179.51 336.062125) scale(0.1 -0.1)">
      <defs>
       <path id="DejaVuSans-43" d="M 4122 4306 
L 4122 3641 
Q 3803 3938 3442 4084 
Q 3081 4231 2675 4231 
Q 1875 4231 1450 3742 
Q 1025 3253 1025 2328 
Q 1025 1406 1450 917 
Q 1875 428 2675 428 
Q 3081 428 3442 575 
Q 3803 722 4122 1019 
L 4122 359 
Q 3791 134 3420 21 
Q 3050 -91 2638 -91 
Q 1578 -91 968 557 
Q 359 1206 359 2328 
Q 359 3453 968 4101 
Q 1578 4750 2638 4750 
Q 3056 4750 3426 4639 
Q 3797 4528 4122 4306 
z
" transform="scale(0.015625)"/>
       <path id="DejaVuSans-68" d="M 3513 2113 
L 3513 0 
L 2938 0 
L 2938 2094 
Q 2938 2591 2744 2837 
Q 2550 3084 2163 3084 
Q 1697 3084 1428 2787 
Q 1159 2491 1159 1978 
L 1159 0 
L 581 0 
L 581 4863 
L 1159 4863 
L 1159 2956 
Q 1366 3272 1645 3428 
Q 1925 3584 2291 3584 
Q 2894 3584 3203 3211 
Q 3513 2838 3513 2113 
z
" transform="scale(0.015625)"/>
       <path id="DejaVuSans-72" d="M 2631 2963 
Q 2534 3019 2420 3045 
Q 2306 3072 2169 3072 
Q 1681 3072 1420 2755 
Q 1159 2438 1159 1844 
L 1159 0 
L 581 0 
L 581 3500 
L 1159 3500 
L 1159 2956 
Q 1341 3275 1631 3429 
Q 1922 3584 2338 3584 
Q 2397 3584 2469 3576 
Q 2541 3569 2628 3553 
L 2631 2963 
z
" transform="scale(0.015625)"/>
       <path id="DejaVuSans-6f" d="M 1959 3097 
Q 1497 3097 1228 2736 
Q 959 2375 959 1747 
Q 959 1119 1226 758 
Q 1494 397 1959 397 
Q 2419 397 2687 759 
Q 2956 1122 2956 1747 
Q 2956 2369 2687 2733 
Q 2419 3097 1959 3097 
z
M 1959 3584 
Q 2709 3584 3137 3096 
Q 3566 2609 3566 1747 
Q 3566 888 3137 398 
Q 2709 -91 1959 -91 
Q 1206 -91 779 398 
Q 353 888 353 1747 
Q 353 2609 779 3096 
Q 1206 3584 1959 3584 
z
" transform="scale(0.015625)"/>
       <path id="DejaVuSans-6d" d="M 3328 2828 
Q 3544 3216 3844 3400 
Q 4144 3584 4550 3584 
Q 5097 3584 5394 3201 
Q 5691 2819 5691 2113 
L 5691 0 
L 5113 0 
L 5113 2094 
Q 5113 2597 4934 2840 
Q 4756 3084 4391 3084 
Q 3944 3084 3684 2787 
Q 3425 2491 3425 1978 
L 3425 0 
L 2847 0 
L 2847 2094 
Q 2847 2600 2669 2842 
Q 2491 3084 2119 3084 
Q 1678 3084 1418 2786 
Q 1159 2488 1159 1978 
L 1159 0 
L 581 0 
L 581 3500 
L 1159 3500 
L 1159 2956 
Q 1356 3278 1631 3431 
Q 1906 3584 2284 3584 
Q 2666 3584 2933 3390 
Q 3200 3197 3328 2828 
z
" transform="scale(0.015625)"/>
       <path id="DejaVuSans-61" d="M 2194 1759 
Q 1497 1759 1228 1600 
Q 959 1441 959 1056 
Q 959 750 1161 570 
Q 1363 391 1709 391 
Q 2188 391 2477 730 
Q 2766 1069 2766 1631 
L 2766 1759 
L 2194 1759 
z
M 3341 1997 
L 3341 0 
L 2766 0 
L 2766 531 
Q 2569 213 2275 61 
Q 1981 -91 1556 -91 
Q 1019 -91 701 211 
Q 384 513 384 1019 
Q 384 1609 779 1909 
Q 1175 2209 1959 2209 
L 2766 2209 
L 2766 2266 
Q 2766 2663 2505 2880 
Q 2244 3097 1772 3097 
Q 1472 3097 1187 3025 
Q 903 2953 641 2809 
L 641 3341 
Q 956 3463 1253 3523 
Q 1550 3584 1831 3584 
Q 2591 3584 2966 3190 
Q 3341 2797 3341 1997 
z
" transform="scale(0.015625)"/>
       <path id="DejaVuSans-74" d="M 1172 4494 
L 1172 3500 
L 2356 3500 
L 2356 3053 
L 1172 3053 
L 1172 1153 
Q 1172 725 1289 603 
Q 1406 481 1766 481 
L 2356 481 
L 2356 0 
L 1766 0 
Q 1100 0 847 248 
Q 594 497 594 1153 
L 594 3053 
L 172 3053 
L 172 3500 
L 594 3500 
L 594 4494 
L 1172 4494 
z
" transform="scale(0.015625)"/>
       <path id="DejaVuSans-69" d="M 603 3500 
L 1178 3500 
L 1178 0 
L 603 0 
L 603 3500 
z
M 603 4863 
L 1178 4863 
L 1178 4134 
L 603 4134 
L 603 4863 
z
" transform="scale(0.015625)"/>
       <path id="DejaVuSans-63" d="M 3122 3366 
L 3122 2828 
Q 2878 2963 2633 3030 
Q 2388 3097 2138 3097 
Q 1578 3097 1268 2742 
Q 959 2388 959 1747 
Q 959 1106 1268 751 
Q 1578 397 2138 397 
Q 2388 397 2633 464 
Q 2878 531 3122 666 
L 3122 134 
Q 2881 22 2623 -34 
Q 2366 -91 2075 -91 
Q 1284 -91 818 406 
Q 353 903 353 1747 
Q 353 2603 823 3093 
Q 1294 3584 2113 3584 
Q 2378 3584 2631 3529 
Q 2884 3475 3122 3366 
z
" transform="scale(0.015625)"/>
       <path id="DejaVuSans-79" d="M 2059 -325 
Q 1816 -950 1584 -1140 
Q 1353 -1331 966 -1331 
L 506 -1331 
L 506 -850 
L 844 -850 
Q 1081 -850 1212 -737 
Q 1344 -625 1503 -206 
L 1606 56 
L 191 3500 
L 800 3500 
L 1894 763 
L 2988 3500 
L 3597 3500 
L 2059 -325 
z
" transform="scale(0.015625)"/>
       <path id="DejaVuSans-20" transform="scale(0.015625)"/>
       <path id="DejaVuSans-Oblique-51" d="M 2309 -84 
Q 2275 -88 2237 -89 
Q 2200 -91 2125 -91 
Q 1250 -91 756 411 
Q 263 913 263 1797 
Q 263 2319 452 2844 
Q 641 3369 978 3788 
Q 1369 4269 1858 4509 
Q 2347 4750 2938 4750 
Q 3794 4750 4287 4245 
Q 4781 3741 4781 2869 
Q 4781 1928 4265 1147 
Q 3750 366 2919 44 
L 3553 -825 
L 2847 -825 
L 2309 -84 
z
M 2919 4238 
Q 2400 4238 2003 3986 
Q 1606 3734 1313 3219 
Q 1125 2891 1026 2522 
Q 928 2153 928 1778 
Q 928 1128 1239 775 
Q 1550 422 2119 422 
Q 2631 422 3032 676 
Q 3434 931 3719 1434 
Q 3909 1772 4009 2142 
Q 4109 2513 4109 2881 
Q 4109 3528 3796 3883 
Q 3484 4238 2919 4238 
z
" transform="scale(0.015625)"/>
       <path id="Cmsy10-30" d="M 225 347 
Q 184 359 184 409 
L 966 3316 
Q 1003 3434 1093 3506 
Q 1184 3578 1300 3578 
Q 1450 3578 1564 3479 
Q 1678 3381 1678 3231 
Q 1678 3166 1644 3084 
L 488 319 
Q 466 275 428 275 
Q 394 275 320 306 
Q 247 338 225 347 
z
" transform="scale(0.015625)"/>
       <path id="DejaVuSans-Oblique-76" d="M 459 3500 
L 1069 3500 
L 1581 525 
L 3256 3500 
L 3866 3500 
L 1875 0 
L 1100 0 
L 459 3500 
z
" transform="scale(0.015625)"/>
       <path id="DejaVuSans-76" d="M 191 3500 
L 800 3500 
L 1894 563 
L 2988 3500 
L 3597 3500 
L 2284 0 
L 1503 0 
L 191 3500 
z
" transform="scale(0.015625)"/>
       <path id="DejaVuSans-6c" d="M 603 4863 
L 1178 4863 
L 1178 0 
L 603 0 
L 603 4863 
z
" transform="scale(0.015625)"/>
       <path id="DejaVuSans-75" d="M 544 1381 
L 544 3500 
L 1119 3500 
L 1119 1403 
Q 1119 906 1312 657 
Q 1506 409 1894 409 
Q 2359 409 2629 706 
Q 2900 1003 2900 1516 
L 2900 3500 
L 3475 3500 
L 3475 0 
L 2900 0 
L 2900 538 
Q 2691 219 2414 64 
Q 2138 -91 1772 -91 
Q 1169 -91 856 284 
Q 544 659 544 1381 
z
M 1991 3584 
L 1991 3584 
z
" transform="scale(0.015625)"/>
       <path id="DejaVuSans-65" d="M 3597 1894 
L 3597 1613 
L 953 1613 
Q 991 1019 1311 708 
Q 1631 397 2203 397 
Q 2534 397 2845 478 
Q 3156 559 3463 722 
L 3463 178 
Q 3153 47 2828 -22 
Q 2503 -91 2169 -91 
Q 1331 -91 842 396 
Q 353 884 353 1716 
Q 353 2575 817 3079 
Q 1281 3584 2069 3584 
Q 2775 3584 3186 3129 
Q 3597 2675 3597 1894 
z
M 3022 2063 
Q 3016 2534 2758 2815 
Q 2500 3097 2075 3097 
Q 1594 3097 1305 2825 
Q 1016 2553 972 2059 
L 3022 2063 
z
" transform="scale(0.015625)"/>
      </defs>
      <use xlink:href="#DejaVuSans-43" transform="translate(0 0.584375)"/>
      <use xlink:href="#DejaVuSans-68" transform="translate(69.824219 0.584375)"/>
      <use xlink:href="#DejaVuSans-72" transform="translate(133.203125 0.584375)"/>
      <use xlink:href="#DejaVuSans-6f" transform="translate(174.316406 0.584375)"/>
      <use xlink:href="#DejaVuSans-6d" transform="translate(235.498047 0.584375)"/>
      <use xlink:href="#DejaVuSans-61" transform="translate(332.910156 0.584375)"/>
      <use xlink:href="#DejaVuSans-74" transform="translate(394.189453 0.584375)"/>
      <use xlink:href="#DejaVuSans-69" transform="translate(433.398438 0.584375)"/>
      <use xlink:href="#DejaVuSans-63" transform="translate(461.181641 0.584375)"/>
      <use xlink:href="#DejaVuSans-69" transform="translate(516.162109 0.584375)"/>
      <use xlink:href="#DejaVuSans-74" transform="translate(543.945312 0.584375)"/>
      <use xlink:href="#DejaVuSans-79" transform="translate(583.154297 0.584375)"/>
      <use xlink:href="#DejaVuSans-20" transform="translate(642.333984 0.584375)"/>
      <use xlink:href="#DejaVuSans-Oblique-51" transform="translate(674.121094 0.584375)"/>
      <use xlink:href="#Cmsy10-30" transform="translate(760.032552 38.865625) scale(0.7)"/>
      <use xlink:href="#DejaVuSans-Oblique-76" transform="translate(782.967122 -15.821875) scale(0.7)"/>
      <use xlink:href="#DejaVuSans-20" transform="translate(827.127279 0.584375)"/>
      <use xlink:href="#DejaVuSans-76" transform="translate(858.914388 0.584375)"/>
      <use xlink:href="#DejaVuSans-61" transform="translate(918.094076 0.584375)"/>
      <use xlink:href="#DejaVuSans-6c" transform="translate(979.373372 0.584375)"/>
      <use xlink:href="#DejaVuSans-75" transform="translate(1007.156576 0.584375)"/>
      <use xlink:href="#DejaVuSans-65" transform="translate(1070.535482 0.584375)"/>
     </g>
    </g>
   </g>
   <g id="matplotlib.axis_2">
    <g id="ytick_1">
     <g id="line2d_10">
      <defs>
       <path id="mb39989d292" d="M 0 0 
L -3.5 0 
" style="stroke: #000000; stroke-width: 0.8"/>
      </defs>
      <g>
       <use xlink:href="#mb39989d292" x="57.6" y="307.584" style="stroke: #000000; stroke-width: 0.8"/>
      </g>
     </g>
     <g id="text_11">
      <!-- 0 -->
      <g transform="translate(44.2375 311.383219) scale(0.1 -0.1)">
       <use xlink:href="#DejaVuSans-30"/>
      </g>
     </g>
    </g>
    <g id="ytick_2">
     <g id="line2d_11">
      <g>
       <use xlink:href="#mb39989d292" x="57.6" y="254.3616" style="stroke: #000000; stroke-width: 0.8"/>
      </g>
     </g>
     <g id="text_12">
      <!-- 1 -->
      <g transform="translate(44.2375 258.160819) scale(0.1 -0.1)">
       <use xlink:href="#DejaVuSans-31"/>
      </g>
     </g>
    </g>
    <g id="ytick_3">
     <g id="line2d_12">
      <g>
       <use xlink:href="#mb39989d292" x="57.6" y="201.1392" style="stroke: #000000; stroke-width: 0.8"/>
      </g>
     </g>
     <g id="text_13">
      <!-- 2 -->
      <g transform="translate(44.2375 204.938419) scale(0.1 -0.1)">
       <use xlink:href="#DejaVuSans-32"/>
      </g>
     </g>
    </g>
    <g id="ytick_4">
     <g id="line2d_13">
      <g>
       <use xlink:href="#mb39989d292" x="57.6" y="147.9168" style="stroke: #000000; stroke-width: 0.8"/>
      </g>
     </g>
     <g id="text_14">
      <!-- 3 -->
      <g transform="translate(44.2375 151.716019) scale(0.1 -0.1)">
       <defs>
        <path id="DejaVuSans-33" d="M 2597 2516 
Q 3050 2419 3304 2112 
Q 3559 1806 3559 1356 
Q 3559 666 3084 287 
Q 2609 -91 1734 -91 
Q 1441 -91 1130 -33 
Q 819 25 488 141 
L 488 750 
Q 750 597 1062 519 
Q 1375 441 1716 441 
Q 2309 441 2620 675 
Q 2931 909 2931 1356 
Q 2931 1769 2642 2001 
Q 2353 2234 1838 2234 
L 1294 2234 
L 1294 2753 
L 1863 2753 
Q 2328 2753 2575 2939 
Q 2822 3125 2822 3475 
Q 2822 3834 2567 4026 
Q 2313 4219 1838 4219 
Q 1578 4219 1281 4162 
Q 984 4106 628 3988 
L 628 4550 
Q 988 4650 1302 4700 
Q 1616 4750 1894 4750 
Q 2613 4750 3031 4423 
Q 3450 4097 3450 3541 
Q 3450 3153 3228 2886 
Q 3006 2619 2597 2516 
z
" transform="scale(0.015625)"/>
       </defs>
       <use xlink:href="#DejaVuSans-33"/>
      </g>
     </g>
    </g>
    <g id="ytick_5">
     <g id="line2d_14">
      <g>
       <use xlink:href="#mb39989d292" x="57.6" y="94.6944" style="stroke: #000000; stroke-width: 0.8"/>
      </g>
     </g>
     <g id="text_15">
      <!-- 4 -->
      <g transform="translate(44.2375 98.493619) scale(0.1 -0.1)">
       <defs>
        <path id="DejaVuSans-34" d="M 2419 4116 
L 825 1625 
L 2419 1625 
L 2419 4116 
z
M 2253 4666 
L 3047 4666 
L 3047 1625 
L 3713 1625 
L 3713 1100 
L 3047 1100 
L 3047 0 
L 2419 0 
L 2419 1100 
L 313 1100 
L 313 1709 
L 2253 4666 
z
" transform="scale(0.015625)"/>
       </defs>
       <use xlink:href="#DejaVuSans-34"/>
      </g>
     </g>
    </g>
    <g id="ytick_6">
     <g id="line2d_15">
      <g>
       <use xlink:href="#mb39989d292" x="57.6" y="41.472" style="stroke: #000000; stroke-width: 0.8"/>
      </g>
     </g>
     <g id="text_16">
      <!-- 5 -->
      <g transform="translate(44.2375 45.271219) scale(0.1 -0.1)">
       <use xlink:href="#DejaVuSans-35"/>
      </g>
     </g>
    </g>
    <g id="text_17">
     <!-- Growthrate [1e3/nturns] -->
     <g transform="translate(38.157812 235.431906) rotate(-90) scale(0.1 -0.1)">
      <defs>
       <path id="DejaVuSans-47" d="M 3809 666 
L 3809 1919 
L 2778 1919 
L 2778 2438 
L 4434 2438 
L 4434 434 
Q 4069 175 3628 42 
Q 3188 -91 2688 -91 
Q 1594 -91 976 548 
Q 359 1188 359 2328 
Q 359 3472 976 4111 
Q 1594 4750 2688 4750 
Q 3144 4750 3555 4637 
Q 3966 4525 4313 4306 
L 4313 3634 
Q 3963 3931 3569 4081 
Q 3175 4231 2741 4231 
Q 1884 4231 1454 3753 
Q 1025 3275 1025 2328 
Q 1025 1384 1454 906 
Q 1884 428 2741 428 
Q 3075 428 3337 486 
Q 3600 544 3809 666 
z
" transform="scale(0.015625)"/>
       <path id="DejaVuSans-77" d="M 269 3500 
L 844 3500 
L 1563 769 
L 2278 3500 
L 2956 3500 
L 3675 769 
L 4391 3500 
L 4966 3500 
L 4050 0 
L 3372 0 
L 2619 2869 
L 1863 0 
L 1184 0 
L 269 3500 
z
" transform="scale(0.015625)"/>
       <path id="DejaVuSans-5b" d="M 550 4863 
L 1875 4863 
L 1875 4416 
L 1125 4416 
L 1125 -397 
L 1875 -397 
L 1875 -844 
L 550 -844 
L 550 4863 
z
" transform="scale(0.015625)"/>
       <path id="DejaVuSans-2f" d="M 1625 4666 
L 2156 4666 
L 531 -594 
L 0 -594 
L 1625 4666 
z
" transform="scale(0.015625)"/>
       <path id="DejaVuSans-6e" d="M 3513 2113 
L 3513 0 
L 2938 0 
L 2938 2094 
Q 2938 2591 2744 2837 
Q 2550 3084 2163 3084 
Q 1697 3084 1428 2787 
Q 1159 2491 1159 1978 
L 1159 0 
L 581 0 
L 581 3500 
L 1159 3500 
L 1159 2956 
Q 1366 3272 1645 3428 
Q 1925 3584 2291 3584 
Q 2894 3584 3203 3211 
Q 3513 2838 3513 2113 
z
" transform="scale(0.015625)"/>
       <path id="DejaVuSans-73" d="M 2834 3397 
L 2834 2853 
Q 2591 2978 2328 3040 
Q 2066 3103 1784 3103 
Q 1356 3103 1142 2972 
Q 928 2841 928 2578 
Q 928 2378 1081 2264 
Q 1234 2150 1697 2047 
L 1894 2003 
Q 2506 1872 2764 1633 
Q 3022 1394 3022 966 
Q 3022 478 2636 193 
Q 2250 -91 1575 -91 
Q 1294 -91 989 -36 
Q 684 19 347 128 
L 347 722 
Q 666 556 975 473 
Q 1284 391 1588 391 
Q 1994 391 2212 530 
Q 2431 669 2431 922 
Q 2431 1156 2273 1281 
Q 2116 1406 1581 1522 
L 1381 1569 
Q 847 1681 609 1914 
Q 372 2147 372 2553 
Q 372 3047 722 3315 
Q 1072 3584 1716 3584 
Q 2034 3584 2315 3537 
Q 2597 3491 2834 3397 
z
" transform="scale(0.015625)"/>
       <path id="DejaVuSans-5d" d="M 1947 4863 
L 1947 -844 
L 622 -844 
L 622 -397 
L 1369 -397 
L 1369 4416 
L 622 4416 
L 622 4863 
L 1947 4863 
z
" transform="scale(0.015625)"/>
      </defs>
      <use xlink:href="#DejaVuSans-47"/>
      <use xlink:href="#DejaVuSans-72" x="77.490234"/>
      <use xlink:href="#DejaVuSans-6f" x="116.353516"/>
      <use xlink:href="#DejaVuSans-77" x="177.535156"/>
      <use xlink:href="#DejaVuSans-74" x="259.322266"/>
      <use xlink:href="#DejaVuSans-68" x="298.53125"/>
      <use xlink:href="#DejaVuSans-72" x="361.910156"/>
      <use xlink:href="#DejaVuSans-61" x="403.023438"/>
      <use xlink:href="#DejaVuSans-74" x="464.302734"/>
      <use xlink:href="#DejaVuSans-65" x="503.511719"/>
      <use xlink:href="#DejaVuSans-20" x="565.035156"/>
      <use xlink:href="#DejaVuSans-5b" x="596.822266"/>
      <use xlink:href="#DejaVuSans-31" x="635.835938"/>
      <use xlink:href="#DejaVuSans-65" x="699.458984"/>
      <use xlink:href="#DejaVuSans-33" x="760.982422"/>
      <use xlink:href="#DejaVuSans-2f" x="824.605469"/>
      <use xlink:href="#DejaVuSans-6e" x="858.296875"/>
      <use xlink:href="#DejaVuSans-74" x="921.675781"/>
      <use xlink:href="#DejaVuSans-75" x="960.884766"/>
      <use xlink:href="#DejaVuSans-72" x="1024.263672"/>
      <use xlink:href="#DejaVuSans-6e" x="1063.626953"/>
      <use xlink:href="#DejaVuSans-73" x="1127.005859"/>
      <use xlink:href="#DejaVuSans-5d" x="1179.105469"/>
     </g>
    </g>
   </g>
   <g id="LineCollection_1">
    <path d="M 418.2912 307.584 
L 418.2912 307.584 
" clip-path="url(#p2ce085072b)" style="fill: none; stroke: #000000"/>
   </g>
   <g id="line2d_16">
    <defs>
     <path id="m5bbabbad3f" d="M 5 0 
L -5 -0 
" style="stroke: #000000"/>
    </defs>
    <g clip-path="url(#p2ce085072b)">
     <use xlink:href="#m5bbabbad3f" x="418.2912" y="307.584" style="stroke: #000000"/>
    </g>
   </g>
   <g id="line2d_17">
    <g clip-path="url(#p2ce085072b)">
     <use xlink:href="#m5bbabbad3f" x="418.2912" y="307.584" style="stroke: #000000"/>
    </g>
   </g>
   <g id="LineCollection_2">
    <path d="M 400.4352 307.584 
L 400.4352 307.584 
" clip-path="url(#p2ce085072b)" style="fill: none; stroke: #000000"/>
   </g>
   <g id="line2d_18">
    <g clip-path="url(#p2ce085072b)">
     <use xlink:href="#m5bbabbad3f" x="400.4352" y="307.584" style="stroke: #000000"/>
    </g>
   </g>
   <g id="line2d_19">
    <g clip-path="url(#p2ce085072b)">
     <use xlink:href="#m5bbabbad3f" x="400.4352" y="307.584" style="stroke: #000000"/>
    </g>
   </g>
   <g id="LineCollection_3">
    <path d="M 382.5792 307.584 
L 382.5792 307.584 
" clip-path="url(#p2ce085072b)" style="fill: none; stroke: #000000"/>
   </g>
   <g id="line2d_20">
    <g clip-path="url(#p2ce085072b)">
     <use xlink:href="#m5bbabbad3f" x="382.5792" y="307.584" style="stroke: #000000"/>
    </g>
   </g>
   <g id="line2d_21">
    <g clip-path="url(#p2ce085072b)">
     <use xlink:href="#m5bbabbad3f" x="382.5792" y="307.584" style="stroke: #000000"/>
    </g>
   </g>
   <g id="LineCollection_4">
    <path d="M 364.7232 307.584 
L 364.7232 307.584 
" clip-path="url(#p2ce085072b)" style="fill: none; stroke: #000000"/>
   </g>
   <g id="line2d_22">
    <g clip-path="url(#p2ce085072b)">
     <use xlink:href="#m5bbabbad3f" x="364.7232" y="307.584" style="stroke: #000000"/>
    </g>
   </g>
   <g id="line2d_23">
    <g clip-path="url(#p2ce085072b)">
     <use xlink:href="#m5bbabbad3f" x="364.7232" y="307.584" style="stroke: #000000"/>
    </g>
   </g>
   <g id="LineCollection_5">
    <path d="M 346.8672 307.584 
L 346.8672 307.584 
" clip-path="url(#p2ce085072b)" style="fill: none; stroke: #000000"/>
   </g>
   <g id="line2d_24">
    <g clip-path="url(#p2ce085072b)">
     <use xlink:href="#m5bbabbad3f" x="346.8672" y="307.584" style="stroke: #000000"/>
    </g>
   </g>
   <g id="line2d_25">
    <g clip-path="url(#p2ce085072b)">
     <use xlink:href="#m5bbabbad3f" x="346.8672" y="307.584" style="stroke: #000000"/>
    </g>
   </g>
   <g id="LineCollection_6">
    <path d="M 329.0112 307.584 
L 329.0112 307.584 
" clip-path="url(#p2ce085072b)" style="fill: none; stroke: #000000"/>
   </g>
   <g id="line2d_26">
    <g clip-path="url(#p2ce085072b)">
     <use xlink:href="#m5bbabbad3f" x="329.0112" y="307.584" style="stroke: #000000"/>
    </g>
   </g>
   <g id="line2d_27">
    <g clip-path="url(#p2ce085072b)">
     <use xlink:href="#m5bbabbad3f" x="329.0112" y="307.584" style="stroke: #000000"/>
    </g>
   </g>
   <g id="LineCollection_7">
    <path d="M 311.1552 307.584 
L 311.1552 307.584 
" clip-path="url(#p2ce085072b)" style="fill: none; stroke: #000000"/>
   </g>
   <g id="line2d_28">
    <g clip-path="url(#p2ce085072b)">
     <use xlink:href="#m5bbabbad3f" x="311.1552" y="307.584" style="stroke: #000000"/>
    </g>
   </g>
   <g id="line2d_29">
    <g clip-path="url(#p2ce085072b)">
     <use xlink:href="#m5bbabbad3f" x="311.1552" y="307.584" style="stroke: #000000"/>
    </g>
   </g>
   <g id="LineCollection_8">
    <path d="M 293.2992 307.584 
L 293.2992 307.584 
" clip-path="url(#p2ce085072b)" style="fill: none; stroke: #000000"/>
   </g>
   <g id="line2d_30">
    <g clip-path="url(#p2ce085072b)">
     <use xlink:href="#m5bbabbad3f" x="293.2992" y="307.584" style="stroke: #000000"/>
    </g>
   </g>
   <g id="line2d_31">
    <g clip-path="url(#p2ce085072b)">
     <use xlink:href="#m5bbabbad3f" x="293.2992" y="307.584" style="stroke: #000000"/>
    </g>
   </g>
   <g id="LineCollection_9">
    <path d="M 275.4432 307.584 
L 275.4432 307.584 
" clip-path="url(#p2ce085072b)" style="fill: none; stroke: #000000"/>
   </g>
   <g id="line2d_32">
    <g clip-path="url(#p2ce085072b)">
     <use xlink:href="#m5bbabbad3f" x="275.4432" y="307.584" style="stroke: #000000"/>
    </g>
   </g>
   <g id="line2d_33">
    <g clip-path="url(#p2ce085072b)">
     <use xlink:href="#m5bbabbad3f" x="275.4432" y="307.584" style="stroke: #000000"/>
    </g>
   </g>
   <g id="LineCollection_10">
    <path d="M 257.5872 307.584 
L 257.5872 307.584 
" clip-path="url(#p2ce085072b)" style="fill: none; stroke: #000000"/>
   </g>
   <g id="line2d_34">
    <g clip-path="url(#p2ce085072b)">
     <use xlink:href="#m5bbabbad3f" x="257.5872" y="307.584" style="stroke: #000000"/>
    </g>
   </g>
   <g id="line2d_35">
    <g clip-path="url(#p2ce085072b)">
     <use xlink:href="#m5bbabbad3f" x="257.5872" y="307.584" style="stroke: #000000"/>
    </g>
   </g>
   <g id="LineCollection_11">
    <path d="M 239.7312 307.584 
L 239.7312 307.584 
" clip-path="url(#p2ce085072b)" style="fill: none; stroke: #000000"/>
   </g>
   <g id="line2d_36">
    <g clip-path="url(#p2ce085072b)">
     <use xlink:href="#m5bbabbad3f" x="239.7312" y="307.584" style="stroke: #000000"/>
    </g>
   </g>
   <g id="line2d_37">
    <g clip-path="url(#p2ce085072b)">
     <use xlink:href="#m5bbabbad3f" x="239.7312" y="307.584" style="stroke: #000000"/>
    </g>
   </g>
   <g id="LineCollection_12">
    <path d="M 221.8752 309.070732 
L 221.8752 298.91869 
" clip-path="url(#p2ce085072b)" style="fill: none; stroke: #000000"/>
   </g>
   <g id="line2d_38">
    <g clip-path="url(#p2ce085072b)">
     <use xlink:href="#m5bbabbad3f" x="221.8752" y="309.070732" style="stroke: #000000"/>
    </g>
   </g>
   <g id="line2d_39">
    <g clip-path="url(#p2ce085072b)">
     <use xlink:href="#m5bbabbad3f" x="221.8752" y="298.91869" style="stroke: #000000"/>
    </g>
   </g>
   <g id="LineCollection_13">
    <path d="M 204.0192 288.708366 
L 204.0192 285.929841 
" clip-path="url(#p2ce085072b)" style="fill: none; stroke: #000000"/>
   </g>
   <g id="line2d_40">
    <g clip-path="url(#p2ce085072b)">
     <use xlink:href="#m5bbabbad3f" x="204.0192" y="288.708366" style="stroke: #000000"/>
    </g>
   </g>
   <g id="line2d_41">
    <g clip-path="url(#p2ce085072b)">
     <use xlink:href="#m5bbabbad3f" x="204.0192" y="285.929841" style="stroke: #000000"/>
    </g>
   </g>
   <g id="LineCollection_14">
    <path d="M 186.1632 301.01583 
L 186.1632 287.663272 
" clip-path="url(#p2ce085072b)" style="fill: none; stroke: #000000"/>
   </g>
   <g id="line2d_42">
    <g clip-path="url(#p2ce085072b)">
     <use xlink:href="#m5bbabbad3f" x="186.1632" y="301.01583" style="stroke: #000000"/>
    </g>
   </g>
   <g id="line2d_43">
    <g clip-path="url(#p2ce085072b)">
     <use xlink:href="#m5bbabbad3f" x="186.1632" y="287.663272" style="stroke: #000000"/>
    </g>
   </g>
   <g id="LineCollection_15">
    <path d="M 168.3072 282.720008 
L 168.3072 278.280632 
" clip-path="url(#p2ce085072b)" style="fill: none; stroke: #000000"/>
   </g>
   <g id="line2d_44">
    <g clip-path="url(#p2ce085072b)">
     <use xlink:href="#m5bbabbad3f" x="168.3072" y="282.720008" style="stroke: #000000"/>
    </g>
   </g>
   <g id="line2d_45">
    <g clip-path="url(#p2ce085072b)">
     <use xlink:href="#m5bbabbad3f" x="168.3072" y="278.280632" style="stroke: #000000"/>
    </g>
   </g>
   <g id="LineCollection_16">
    <path d="M 150.4512 261.409306 
L 150.4512 253.893472 
" clip-path="url(#p2ce085072b)" style="fill: none; stroke: #000000"/>
   </g>
   <g id="line2d_46">
    <g clip-path="url(#p2ce085072b)">
     <use xlink:href="#m5bbabbad3f" x="150.4512" y="261.409306" style="stroke: #000000"/>
    </g>
   </g>
   <g id="line2d_47">
    <g clip-path="url(#p2ce085072b)">
     <use xlink:href="#m5bbabbad3f" x="150.4512" y="253.893472" style="stroke: #000000"/>
    </g>
   </g>
   <g id="LineCollection_17">
    <path d="M 132.5952 238.541846 
L 132.5952 238.207445 
" clip-path="url(#p2ce085072b)" style="fill: none; stroke: #000000"/>
   </g>
   <g id="line2d_48">
    <g clip-path="url(#p2ce085072b)">
     <use xlink:href="#m5bbabbad3f" x="132.5952" y="238.541846" style="stroke: #000000"/>
    </g>
   </g>
   <g id="line2d_49">
    <g clip-path="url(#p2ce085072b)">
     <use xlink:href="#m5bbabbad3f" x="132.5952" y="238.207445" style="stroke: #000000"/>
    </g>
   </g>
   <g id="LineCollection_18">
    <path d="M 114.7392 235.587448 
L 114.7392 230.92955 
" clip-path="url(#p2ce085072b)" style="fill: none; stroke: #000000"/>
   </g>
   <g id="line2d_50">
    <g clip-path="url(#p2ce085072b)">
     <use xlink:href="#m5bbabbad3f" x="114.7392" y="235.587448" style="stroke: #000000"/>
    </g>
   </g>
   <g id="line2d_51">
    <g clip-path="url(#p2ce085072b)">
     <use xlink:href="#m5bbabbad3f" x="114.7392" y="230.92955" style="stroke: #000000"/>
    </g>
   </g>
   <g id="LineCollection_19">
    <path d="M 96.8832 244.278405 
L 96.8832 238.295253 
" clip-path="url(#p2ce085072b)" style="fill: none; stroke: #000000"/>
   </g>
   <g id="line2d_52">
    <g clip-path="url(#p2ce085072b)">
     <use xlink:href="#m5bbabbad3f" x="96.8832" y="244.278405" style="stroke: #000000"/>
    </g>
   </g>
   <g id="line2d_53">
    <g clip-path="url(#p2ce085072b)">
     <use xlink:href="#m5bbabbad3f" x="96.8832" y="238.295253" style="stroke: #000000"/>
    </g>
   </g>
   <g id="LineCollection_20">
    <path d="M 79.0272 270.404086 
L 79.0272 264.74909 
" clip-path="url(#p2ce085072b)" style="fill: none; stroke: #000000"/>
   </g>
   <g id="line2d_54">
    <g clip-path="url(#p2ce085072b)">
     <use xlink:href="#m5bbabbad3f" x="79.0272" y="270.404086" style="stroke: #000000"/>
    </g>
   </g>
   <g id="line2d_55">
    <g clip-path="url(#p2ce085072b)">
     <use xlink:href="#m5bbabbad3f" x="79.0272" y="264.74909" style="stroke: #000000"/>
    </g>
   </g>
   <g id="LineCollection_21">
    <path d="M 79.0272 270.404086 
L 79.0272 264.74909 
" clip-path="url(#p2ce085072b)" style="fill: none; stroke: #000000"/>
   </g>
   <g id="line2d_56">
    <g clip-path="url(#p2ce085072b)">
     <use xlink:href="#m5bbabbad3f" x="79.0272" y="270.404086" style="stroke: #000000"/>
    </g>
   </g>
   <g id="line2d_57">
    <g clip-path="url(#p2ce085072b)">
     <use xlink:href="#m5bbabbad3f" x="79.0272" y="264.74909" style="stroke: #000000"/>
    </g>
   </g>
   <g id="line2d_58">
    <path d="M 414.72 307.584 
L 405.792 307.584 
L 396.864 307.584 
L 387.936 307.584 
L 379.008 301.264851 
L 370.08 298.54145 
L 361.152 307.584 
L 352.224 302.391062 
L 343.296 307.584 
L 334.368 307.584 
L 325.44 295.773065 
L 316.512 258.203764 
L 307.584 246.574639 
L 298.656 256.373411 
L 289.728 258.997017 
L 280.8 262.401374 
L 271.872 265.994299 
L 262.944 233.277321 
L 254.016 217.503457 
L 245.088 198.829869 
L 236.16 182.297652 
L 227.232 177.573776 
L 218.304 171.523293 
L 209.376 149.156952 
L 200.448 143.950168 
L 191.52 130.942691 
L 182.592 122.172885 
L 173.664 114.377774 
L 164.736 110.486625 
L 155.808 112.024258 
L 146.88 121.566157 
L 137.952 140.660088 
L 129.024 161.595407 
L 120.096 173.565221 
L 111.168 181.913203 
L 102.24 188.456835 
L 93.312 193.92796 
L 84.384 200.266221 
L 75.456 214.858833 
L 66.528 248.72619 
L 57.6 307.584 
" clip-path="url(#p2ce085072b)" style="fill: none; stroke: #808080; stroke-width: 1.5; stroke-linecap: square"/>
    <defs>
     <path id="mb9b193ef1e" d="M 0 3 
C 0.795609 3 1.55874 2.683901 2.12132 2.12132 
C 2.683901 1.55874 3 0.795609 3 0 
C 3 -0.795609 2.683901 -1.55874 2.12132 -2.12132 
C 1.55874 -2.683901 0.795609 -3 0 -3 
C -0.795609 -3 -1.55874 -2.683901 -2.12132 -2.12132 
C -2.683901 -1.55874 -3 -0.795609 -3 0 
C -3 0.795609 -2.683901 1.55874 -2.12132 2.12132 
C -1.55874 2.683901 -0.795609 3 0 3 
z
" style="stroke: #000000"/>
    </defs>
    <g clip-path="url(#p2ce085072b)">
     <use xlink:href="#mb9b193ef1e" x="414.72" y="307.584" style="fill: #808080; stroke: #000000"/>
     <use xlink:href="#mb9b193ef1e" x="405.792" y="307.584" style="fill: #808080; stroke: #000000"/>
     <use xlink:href="#mb9b193ef1e" x="396.864" y="307.584" style="fill: #808080; stroke: #000000"/>
     <use xlink:href="#mb9b193ef1e" x="387.936" y="307.584" style="fill: #808080; stroke: #000000"/>
     <use xlink:href="#mb9b193ef1e" x="379.008" y="301.264851" style="fill: #808080; stroke: #000000"/>
     <use xlink:href="#mb9b193ef1e" x="370.08" y="298.54145" style="fill: #808080; stroke: #000000"/>
     <use xlink:href="#mb9b193ef1e" x="361.152" y="307.584" style="fill: #808080; stroke: #000000"/>
     <use xlink:href="#mb9b193ef1e" x="352.224" y="302.391062" style="fill: #808080; stroke: #000000"/>
     <use xlink:href="#mb9b193ef1e" x="343.296" y="307.584" style="fill: #808080; stroke: #000000"/>
     <use xlink:href="#mb9b193ef1e" x="334.368" y="307.584" style="fill: #808080; stroke: #000000"/>
     <use xlink:href="#mb9b193ef1e" x="325.44" y="295.773065" style="fill: #808080; stroke: #000000"/>
     <use xlink:href="#mb9b193ef1e" x="316.512" y="258.203764" style="fill: #808080; stroke: #000000"/>
     <use xlink:href="#mb9b193ef1e" x="307.584" y="246.574639" style="fill: #808080; stroke: #000000"/>
     <use xlink:href="#mb9b193ef1e" x="298.656" y="256.373411" style="fill: #808080; stroke: #000000"/>
     <use xlink:href="#mb9b193ef1e" x="289.728" y="258.997017" style="fill: #808080; stroke: #000000"/>
     <use xlink:href="#mb9b193ef1e" x="280.8" y="262.401374" style="fill: #808080; stroke: #000000"/>
     <use xlink:href="#mb9b193ef1e" x="271.872" y="265.994299" style="fill: #808080; stroke: #000000"/>
     <use xlink:href="#mb9b193ef1e" x="262.944" y="233.277321" style="fill: #808080; stroke: #000000"/>
     <use xlink:href="#mb9b193ef1e" x="254.016" y="217.503457" style="fill: #808080; stroke: #000000"/>
     <use xlink:href="#mb9b193ef1e" x="245.088" y="198.829869" style="fill: #808080; stroke: #000000"/>
     <use xlink:href="#mb9b193ef1e" x="236.16" y="182.297652" style="fill: #808080; stroke: #000000"/>
     <use xlink:href="#mb9b193ef1e" x="227.232" y="177.573776" style="fill: #808080; stroke: #000000"/>
     <use xlink:href="#mb9b193ef1e" x="218.304" y="171.523293" style="fill: #808080; stroke: #000000"/>
     <use xlink:href="#mb9b193ef1e" x="209.376" y="149.156952" style="fill: #808080; stroke: #000000"/>
     <use xlink:href="#mb9b193ef1e" x="200.448" y="143.950168" style="fill: #808080; stroke: #000000"/>
     <use xlink:href="#mb9b193ef1e" x="191.52" y="130.942691" style="fill: #808080; stroke: #000000"/>
     <use xlink:href="#mb9b193ef1e" x="182.592" y="122.172885" style="fill: #808080; stroke: #000000"/>
     <use xlink:href="#mb9b193ef1e" x="173.664" y="114.377774" style="fill: #808080; stroke: #000000"/>
     <use xlink:href="#mb9b193ef1e" x="164.736" y="110.486625" style="fill: #808080; stroke: #000000"/>
     <use xlink:href="#mb9b193ef1e" x="155.808" y="112.024258" style="fill: #808080; stroke: #000000"/>
     <use xlink:href="#mb9b193ef1e" x="146.88" y="121.566157" style="fill: #808080; stroke: #000000"/>
     <use xlink:href="#mb9b193ef1e" x="137.952" y="140.660088" style="fill: #808080; stroke: #000000"/>
     <use xlink:href="#mb9b193ef1e" x="129.024" y="161.595407" style="fill: #808080; stroke: #000000"/>
     <use xlink:href="#mb9b193ef1e" x="120.096" y="173.565221" style="fill: #808080; stroke: #000000"/>
     <use xlink:href="#mb9b193ef1e" x="111.168" y="181.913203" style="fill: #808080; stroke: #000000"/>
     <use xlink:href="#mb9b193ef1e" x="102.24" y="188.456835" style="fill: #808080; stroke: #000000"/>
     <use xlink:href="#mb9b193ef1e" x="93.312" y="193.92796" style="fill: #808080; stroke: #000000"/>
     <use xlink:href="#mb9b193ef1e" x="84.384" y="200.266221" style="fill: #808080; stroke: #000000"/>
     <use xlink:href="#mb9b193ef1e" x="75.456" y="214.858833" style="fill: #808080; stroke: #000000"/>
     <use xlink:href="#mb9b193ef1e" x="66.528" y="248.72619" style="fill: #808080; stroke: #000000"/>
     <use xlink:href="#mb9b193ef1e" x="57.6" y="307.584" style="fill: #808080; stroke: #000000"/>
    </g>
   </g>
   <g id="line2d_59">
    <path d="M 396.864 307.584 
L 387.936 307.584 
L 379.008 302.157026 
L 370.08 257.737442 
L 361.152 243.975509 
L 352.224 242.221265 
L 343.296 255.992926 
L 334.368 276.44525 
L 325.44 260.170095 
L 316.512 254.522838 
L 307.584 264.061861 
L 298.656 264.106532 
L 289.728 271.177541 
L 280.8 275.297883 
L 271.872 284.134523 
L 262.944 289.474623 
L 254.016 293.87444 
L 245.088 297.095086 
L 236.16 298.302513 
L 227.232 296.075684 
L 218.304 294.567336 
L 209.376 291.529385 
L 200.448 287.005647 
L 191.52 282.016243 
L 182.592 276.213208 
L 173.664 270.03007 
L 164.736 264.500899 
L 155.808 258.043941 
L 146.88 253.270201 
L 137.952 248.923582 
L 129.024 247.932472 
L 120.096 248.920803 
L 111.168 251.94572 
L 102.24 256.412083 
L 93.312 262.727051 
L 84.384 270.006123 
L 84.384 270.006123 
L 75.456 279.235079 
L 66.528 290.350239 
L 66.528 290.350239 
L 66.528 290.350239 
L 57.6 303.887725 
" clip-path="url(#p2ce085072b)" style="fill: none; stroke: #000000; stroke-width: 1.5; stroke-linecap: square"/>
    <defs>
     <path id="m8ea9394f41" d="M 0 3 
C 0.795609 3 1.55874 2.683901 2.12132 2.12132 
C 2.683901 1.55874 3 0.795609 3 0 
C 3 -0.795609 2.683901 -1.55874 2.12132 -2.12132 
C 1.55874 -2.683901 0.795609 -3 0 -3 
C -0.795609 -3 -1.55874 -2.683901 -2.12132 -2.12132 
C -2.683901 -1.55874 -3 -0.795609 -3 0 
C -3 0.795609 -2.683901 1.55874 -2.12132 2.12132 
C -1.55874 2.683901 -0.795609 3 0 3 
z
" style="stroke: #000000"/>
    </defs>
    <g clip-path="url(#p2ce085072b)">
     <use xlink:href="#m8ea9394f41" x="396.864" y="307.584" style="stroke: #000000"/>
     <use xlink:href="#m8ea9394f41" x="387.936" y="307.584" style="stroke: #000000"/>
     <use xlink:href="#m8ea9394f41" x="379.008" y="302.157026" style="stroke: #000000"/>
     <use xlink:href="#m8ea9394f41" x="370.08" y="257.737442" style="stroke: #000000"/>
     <use xlink:href="#m8ea9394f41" x="361.152" y="243.975509" style="stroke: #000000"/>
     <use xlink:href="#m8ea9394f41" x="352.224" y="242.221265" style="stroke: #000000"/>
     <use xlink:href="#m8ea9394f41" x="343.296" y="255.992926" style="stroke: #000000"/>
     <use xlink:href="#m8ea9394f41" x="334.368" y="276.44525" style="stroke: #000000"/>
     <use xlink:href="#m8ea9394f41" x="325.44" y="260.170095" style="stroke: #000000"/>
     <use xlink:href="#m8ea9394f41" x="316.512" y="254.522838" style="stroke: #000000"/>
     <use xlink:href="#m8ea9394f41" x="307.584" y="264.061861" style="stroke: #000000"/>
     <use xlink:href="#m8ea9394f41" x="298.656" y="264.106532" style="stroke: #000000"/>
     <use xlink:href="#m8ea9394f41" x="289.728" y="271.177541" style="stroke: #000000"/>
     <use xlink:href="#m8ea9394f41" x="280.8" y="275.297883" style="stroke: #000000"/>
     <use xlink:href="#m8ea9394f41" x="271.872" y="284.134523" style="stroke: #000000"/>
     <use xlink:href="#m8ea9394f41" x="262.944" y="289.474623" style="stroke: #000000"/>
     <use xlink:href="#m8ea9394f41" x="254.016" y="293.87444" style="stroke: #000000"/>
     <use xlink:href="#m8ea9394f41" x="245.088" y="297.095086" style="stroke: #000000"/>
     <use xlink:href="#m8ea9394f41" x="236.16" y="298.302513" style="stroke: #000000"/>
     <use xlink:href="#m8ea9394f41" x="227.232" y="296.075684" style="stroke: #000000"/>
     <use xlink:href="#m8ea9394f41" x="218.304" y="294.567336" style="stroke: #000000"/>
     <use xlink:href="#m8ea9394f41" x="209.376" y="291.529385" style="stroke: #000000"/>
     <use xlink:href="#m8ea9394f41" x="200.448" y="287.005647" style="stroke: #000000"/>
     <use xlink:href="#m8ea9394f41" x="191.52" y="282.016243" style="stroke: #000000"/>
     <use xlink:href="#m8ea9394f41" x="182.592" y="276.213208" style="stroke: #000000"/>
     <use xlink:href="#m8ea9394f41" x="173.664" y="270.03007" style="stroke: #000000"/>
     <use xlink:href="#m8ea9394f41" x="164.736" y="264.500899" style="stroke: #000000"/>
     <use xlink:href="#m8ea9394f41" x="155.808" y="258.043941" style="stroke: #000000"/>
     <use xlink:href="#m8ea9394f41" x="146.88" y="253.270201" style="stroke: #000000"/>
     <use xlink:href="#m8ea9394f41" x="137.952" y="248.923582" style="stroke: #000000"/>
     <use xlink:href="#m8ea9394f41" x="129.024" y="247.932472" style="stroke: #000000"/>
     <use xlink:href="#m8ea9394f41" x="120.096" y="248.920803" style="stroke: #000000"/>
     <use xlink:href="#m8ea9394f41" x="111.168" y="251.94572" style="stroke: #000000"/>
     <use xlink:href="#m8ea9394f41" x="102.24" y="256.412083" style="stroke: #000000"/>
     <use xlink:href="#m8ea9394f41" x="93.312" y="262.727051" style="stroke: #000000"/>
     <use xlink:href="#m8ea9394f41" x="84.384" y="270.006123" style="stroke: #000000"/>
     <use xlink:href="#m8ea9394f41" x="84.384" y="270.006123" style="stroke: #000000"/>
     <use xlink:href="#m8ea9394f41" x="75.456" y="279.235079" style="stroke: #000000"/>
     <use xlink:href="#m8ea9394f41" x="66.528" y="290.350239" style="stroke: #000000"/>
     <use xlink:href="#m8ea9394f41" x="66.528" y="290.350239" style="stroke: #000000"/>
     <use xlink:href="#m8ea9394f41" x="66.528" y="290.350239" style="stroke: #000000"/>
     <use xlink:href="#m8ea9394f41" x="57.6" y="303.887725" style="stroke: #000000"/>
    </g>
   </g>
   <g id="line2d_60">
    <defs>
     <path id="m5eabfa80c7" d="M 0 3 
C 0.795609 3 1.55874 2.683901 2.12132 2.12132 
C 2.683901 1.55874 3 0.795609 3 0 
C 3 -0.795609 2.683901 -1.55874 2.12132 -2.12132 
C 1.55874 -2.683901 0.795609 -3 0 -3 
C -0.795609 -3 -1.55874 -2.683901 -2.12132 -2.12132 
C -2.683901 -1.55874 -3 -0.795609 -3 0 
C -3 0.795609 -2.683901 1.55874 -2.12132 2.12132 
C -1.55874 2.683901 -0.795609 3 0 3 
z
" style="stroke: #ff0000"/>
    </defs>
    <g clip-path="url(#p2ce085072b)">
     <use xlink:href="#m5eabfa80c7" x="418.2912" y="307.584" style="fill: #ffffff; stroke: #ff0000"/>
    </g>
   </g>
   <g id="line2d_61">
    <g clip-path="url(#p2ce085072b)">
     <use xlink:href="#m5eabfa80c7" x="400.4352" y="307.584" style="fill: #ffffff; stroke: #ff0000"/>
    </g>
   </g>
   <g id="line2d_62">
    <g clip-path="url(#p2ce085072b)">
     <use xlink:href="#m5eabfa80c7" x="382.5792" y="307.584" style="fill: #ffffff; stroke: #ff0000"/>
    </g>
   </g>
   <g id="line2d_63">
    <g clip-path="url(#p2ce085072b)">
     <use xlink:href="#m5eabfa80c7" x="364.7232" y="307.584" style="fill: #ffffff; stroke: #ff0000"/>
    </g>
   </g>
   <g id="line2d_64">
    <g clip-path="url(#p2ce085072b)">
     <use xlink:href="#m5eabfa80c7" x="346.8672" y="307.584" style="fill: #ffffff; stroke: #ff0000"/>
    </g>
   </g>
   <g id="line2d_65">
    <g clip-path="url(#p2ce085072b)">
     <use xlink:href="#m5eabfa80c7" x="329.0112" y="307.584" style="fill: #ffffff; stroke: #ff0000"/>
    </g>
   </g>
   <g id="line2d_66">
    <g clip-path="url(#p2ce085072b)">
     <use xlink:href="#m5eabfa80c7" x="311.1552" y="307.584" style="fill: #ffffff; stroke: #ff0000"/>
    </g>
   </g>
   <g id="line2d_67">
    <g clip-path="url(#p2ce085072b)">
     <use xlink:href="#m5eabfa80c7" x="293.2992" y="307.584" style="fill: #ffffff; stroke: #ff0000"/>
    </g>
   </g>
   <g id="line2d_68">
    <g clip-path="url(#p2ce085072b)">
     <use xlink:href="#m5eabfa80c7" x="275.4432" y="307.584" style="fill: #ffffff; stroke: #ff0000"/>
    </g>
   </g>
   <g id="line2d_69">
    <g clip-path="url(#p2ce085072b)">
     <use xlink:href="#m5eabfa80c7" x="257.5872" y="307.584" style="fill: #ffffff; stroke: #ff0000"/>
    </g>
   </g>
   <g id="line2d_70">
    <g clip-path="url(#p2ce085072b)">
     <use xlink:href="#m5eabfa80c7" x="239.7312" y="307.584" style="fill: #ffffff; stroke: #ff0000"/>
    </g>
   </g>
   <g id="line2d_71">
    <g clip-path="url(#p2ce085072b)">
     <use xlink:href="#m5eabfa80c7" x="221.8752" y="303.994711" style="fill: #ffffff; stroke: #ff0000"/>
    </g>
   </g>
   <g id="line2d_72">
    <g clip-path="url(#p2ce085072b)">
     <use xlink:href="#m5eabfa80c7" x="204.0192" y="287.319103" style="fill: #ffffff; stroke: #ff0000"/>
    </g>
   </g>
   <g id="line2d_73">
    <g clip-path="url(#p2ce085072b)">
     <use xlink:href="#m5eabfa80c7" x="186.1632" y="294.339551" style="fill: #ffffff; stroke: #ff0000"/>
    </g>
   </g>
   <g id="line2d_74">
    <g clip-path="url(#p2ce085072b)">
     <use xlink:href="#m5eabfa80c7" x="168.3072" y="280.50032" style="fill: #ffffff; stroke: #ff0000"/>
    </g>
   </g>
   <g id="line2d_75">
    <g clip-path="url(#p2ce085072b)">
     <use xlink:href="#m5eabfa80c7" x="150.4512" y="257.651389" style="fill: #ffffff; stroke: #ff0000"/>
    </g>
   </g>
   <g id="line2d_76">
    <g clip-path="url(#p2ce085072b)">
     <use xlink:href="#m5eabfa80c7" x="132.5952" y="238.374645" style="fill: #ffffff; stroke: #ff0000"/>
    </g>
   </g>
   <g id="line2d_77">
    <g clip-path="url(#p2ce085072b)">
     <use xlink:href="#m5eabfa80c7" x="114.7392" y="233.258499" style="fill: #ffffff; stroke: #ff0000"/>
    </g>
   </g>
   <g id="line2d_78">
    <g clip-path="url(#p2ce085072b)">
     <use xlink:href="#m5eabfa80c7" x="96.8832" y="241.286829" style="fill: #ffffff; stroke: #ff0000"/>
    </g>
   </g>
   <g id="line2d_79">
    <g clip-path="url(#p2ce085072b)">
     <use xlink:href="#m5eabfa80c7" x="79.0272" y="267.576588" style="fill: #ffffff; stroke: #ff0000"/>
    </g>
   </g>
   <g id="line2d_80">
    <g clip-path="url(#p2ce085072b)">
     <use xlink:href="#m5eabfa80c7" x="79.0272" y="267.576588" style="fill: #ffffff; stroke: #ff0000"/>
    </g>
   </g>
   <g id="patch_3">
    <path d="M 57.6 307.584 
L 57.6 41.472 
" style="fill: none; stroke: #000000; stroke-width: 0.8; stroke-linejoin: miter; stroke-linecap: square"/>
   </g>
   <g id="patch_4">
    <path d="M 414.72 307.584 
L 414.72 41.472 
" style="fill: none; stroke: #000000; stroke-width: 0.8; stroke-linejoin: miter; stroke-linecap: square"/>
   </g>
   <g id="patch_5">
    <path d="M 57.6 307.584 
L 414.72 307.584 
" style="fill: none; stroke: #000000; stroke-width: 0.8; stroke-linejoin: miter; stroke-linecap: square"/>
   </g>
   <g id="patch_6">
    <path d="M 57.6 41.472 
L 414.72 41.472 
" style="fill: none; stroke: #000000; stroke-width: 0.8; stroke-linejoin: miter; stroke-linecap: square"/>
   </g>
   <g id="text_18">
    <!-- Growthrate vs chromaticity simulations -->
    <g transform="translate(117.945937 7.193875) scale(0.12 -0.12)">
     <use xlink:href="#DejaVuSans-47"/>
     <use xlink:href="#DejaVuSans-72" x="77.490234"/>
     <use xlink:href="#DejaVuSans-6f" x="116.353516"/>
     <use xlink:href="#DejaVuSans-77" x="177.535156"/>
     <use xlink:href="#DejaVuSans-74" x="259.322266"/>
     <use xlink:href="#DejaVuSans-68" x="298.53125"/>
     <use xlink:href="#DejaVuSans-72" x="361.910156"/>
     <use xlink:href="#DejaVuSans-61" x="403.023438"/>
     <use xlink:href="#DejaVuSans-74" x="464.302734"/>
     <use xlink:href="#DejaVuSans-65" x="503.511719"/>
     <use xlink:href="#DejaVuSans-20" x="565.035156"/>
     <use xlink:href="#DejaVuSans-76" x="596.822266"/>
     <use xlink:href="#DejaVuSans-73" x="656.001953"/>
     <use xlink:href="#DejaVuSans-20" x="708.101562"/>
     <use xlink:href="#DejaVuSans-63" x="739.888672"/>
     <use xlink:href="#DejaVuSans-68" x="794.869141"/>
     <use xlink:href="#DejaVuSans-72" x="858.248047"/>
     <use xlink:href="#DejaVuSans-6f" x="897.111328"/>
     <use xlink:href="#DejaVuSans-6d" x="958.292969"/>
     <use xlink:href="#DejaVuSans-61" x="1055.705078"/>
     <use xlink:href="#DejaVuSans-74" x="1116.984375"/>
     <use xlink:href="#DejaVuSans-69" x="1156.193359"/>
     <use xlink:href="#DejaVuSans-63" x="1183.976562"/>
     <use xlink:href="#DejaVuSans-69" x="1238.957031"/>
     <use xlink:href="#DejaVuSans-74" x="1266.740234"/>
     <use xlink:href="#DejaVuSans-79" x="1305.949219"/>
     <use xlink:href="#DejaVuSans-20" x="1365.128906"/>
     <use xlink:href="#DejaVuSans-73" x="1396.916016"/>
     <use xlink:href="#DejaVuSans-69" x="1449.015625"/>
     <use xlink:href="#DejaVuSans-6d" x="1476.798828"/>
     <use xlink:href="#DejaVuSans-75" x="1574.210938"/>
     <use xlink:href="#DejaVuSans-6c" x="1637.589844"/>
     <use xlink:href="#DejaVuSans-61" x="1665.373047"/>
     <use xlink:href="#DejaVuSans-74" x="1726.652344"/>
     <use xlink:href="#DejaVuSans-69" x="1765.861328"/>
     <use xlink:href="#DejaVuSans-6f" x="1793.644531"/>
     <use xlink:href="#DejaVuSans-6e" x="1854.826172"/>
     <use xlink:href="#DejaVuSans-73" x="1918.205078"/>
    </g>
   </g>
   <g id="legend_1">
    <g id="patch_7">
     <path d="M 295.959063 93.506375 
L 407.72 93.506375 
Q 409.72 93.506375 409.72 91.506375 
L 409.72 48.472 
Q 409.72 46.472 407.72 46.472 
L 295.959063 46.472 
Q 293.959063 46.472 293.959063 48.472 
L 293.959063 91.506375 
Q 293.959063 93.506375 295.959063 93.506375 
z
" style="fill: #ffffff; opacity: 0.8; stroke: #cccccc; stroke-linejoin: miter"/>
    </g>
    <g id="line2d_81">
     <path d="M 297.959063 54.570438 
L 307.959063 54.570438 
L 317.959063 54.570438 
" style="fill: none; stroke: #808080; stroke-width: 1.5; stroke-linecap: square"/>
     <g>
      <use xlink:href="#mb9b193ef1e" x="307.959063" y="54.570438" style="fill: #808080; stroke: #000000"/>
     </g>
    </g>
    <g id="text_19">
     <!-- pyHT linear -->
     <g transform="translate(325.959063 58.070438) scale(0.1 -0.1)">
      <defs>
       <path id="DejaVuSans-70" d="M 1159 525 
L 1159 -1331 
L 581 -1331 
L 581 3500 
L 1159 3500 
L 1159 2969 
Q 1341 3281 1617 3432 
Q 1894 3584 2278 3584 
Q 2916 3584 3314 3078 
Q 3713 2572 3713 1747 
Q 3713 922 3314 415 
Q 2916 -91 2278 -91 
Q 1894 -91 1617 61 
Q 1341 213 1159 525 
z
M 3116 1747 
Q 3116 2381 2855 2742 
Q 2594 3103 2138 3103 
Q 1681 3103 1420 2742 
Q 1159 2381 1159 1747 
Q 1159 1113 1420 752 
Q 1681 391 2138 391 
Q 2594 391 2855 752 
Q 3116 1113 3116 1747 
z
" transform="scale(0.015625)"/>
       <path id="DejaVuSans-48" d="M 628 4666 
L 1259 4666 
L 1259 2753 
L 3553 2753 
L 3553 4666 
L 4184 4666 
L 4184 0 
L 3553 0 
L 3553 2222 
L 1259 2222 
L 1259 0 
L 628 0 
L 628 4666 
z
" transform="scale(0.015625)"/>
       <path id="DejaVuSans-54" d="M -19 4666 
L 3928 4666 
L 3928 4134 
L 2272 4134 
L 2272 0 
L 1638 0 
L 1638 4134 
L -19 4134 
L -19 4666 
z
" transform="scale(0.015625)"/>
      </defs>
      <use xlink:href="#DejaVuSans-70"/>
      <use xlink:href="#DejaVuSans-79" x="63.476562"/>
      <use xlink:href="#DejaVuSans-48" x="122.65625"/>
      <use xlink:href="#DejaVuSans-54" x="197.851562"/>
      <use xlink:href="#DejaVuSans-20" x="258.935547"/>
      <use xlink:href="#DejaVuSans-6c" x="290.722656"/>
      <use xlink:href="#DejaVuSans-69" x="318.505859"/>
      <use xlink:href="#DejaVuSans-6e" x="346.289062"/>
      <use xlink:href="#DejaVuSans-65" x="409.667969"/>
      <use xlink:href="#DejaVuSans-61" x="471.191406"/>
      <use xlink:href="#DejaVuSans-72" x="532.470703"/>
     </g>
    </g>
    <g id="line2d_82">
     <path d="M 297.959063 69.248563 
L 307.959063 69.248563 
L 317.959063 69.248563 
" style="fill: none; stroke: #000000; stroke-width: 1.5; stroke-linecap: square"/>
     <g>
      <use xlink:href="#m8ea9394f41" x="307.959063" y="69.248563" style="stroke: #000000"/>
     </g>
    </g>
    <g id="text_20">
     <!-- pyHT non-linear -->
     <g transform="translate(325.959063 72.748563) scale(0.1 -0.1)">
      <defs>
       <path id="DejaVuSans-2d" d="M 313 2009 
L 1997 2009 
L 1997 1497 
L 313 1497 
L 313 2009 
z
" transform="scale(0.015625)"/>
      </defs>
      <use xlink:href="#DejaVuSans-70"/>
      <use xlink:href="#DejaVuSans-79" x="63.476562"/>
      <use xlink:href="#DejaVuSans-48" x="122.65625"/>
      <use xlink:href="#DejaVuSans-54" x="197.851562"/>
      <use xlink:href="#DejaVuSans-20" x="258.935547"/>
      <use xlink:href="#DejaVuSans-6e" x="290.722656"/>
      <use xlink:href="#DejaVuSans-6f" x="354.101562"/>
      <use xlink:href="#DejaVuSans-6e" x="415.283203"/>
      <use xlink:href="#DejaVuSans-2d" x="478.662109"/>
      <use xlink:href="#DejaVuSans-6c" x="514.746094"/>
      <use xlink:href="#DejaVuSans-69" x="542.529297"/>
      <use xlink:href="#DejaVuSans-6e" x="570.3125"/>
      <use xlink:href="#DejaVuSans-65" x="633.691406"/>
      <use xlink:href="#DejaVuSans-61" x="695.214844"/>
      <use xlink:href="#DejaVuSans-72" x="756.494141"/>
     </g>
    </g>
    <g id="LineCollection_22">
     <path d="M 307.959063 88.926688 
L 307.959063 78.926688 
" style="fill: none; stroke: #000000"/>
    </g>
    <g id="line2d_83">
     <g>
      <use xlink:href="#m5bbabbad3f" x="307.959063" y="88.926688" style="stroke: #000000"/>
     </g>
    </g>
    <g id="line2d_84">
     <g>
      <use xlink:href="#m5bbabbad3f" x="307.959063" y="78.926688" style="stroke: #000000"/>
     </g>
    </g>
    <g id="line2d_85"/>
    <g id="line2d_86">
     <g>
      <use xlink:href="#m5eabfa80c7" x="307.959063" y="83.926688" style="fill: #ffffff; stroke: #ff0000"/>
     </g>
    </g>
    <g id="text_21">
     <!-- measurements -->
     <g transform="translate(325.959063 87.426688) scale(0.1 -0.1)">
      <use xlink:href="#DejaVuSans-6d"/>
      <use xlink:href="#DejaVuSans-65" x="97.412109"/>
      <use xlink:href="#DejaVuSans-61" x="158.935547"/>
      <use xlink:href="#DejaVuSans-73" x="220.214844"/>
      <use xlink:href="#DejaVuSans-75" x="272.314453"/>
      <use xlink:href="#DejaVuSans-72" x="335.693359"/>
      <use xlink:href="#DejaVuSans-65" x="374.556641"/>
      <use xlink:href="#DejaVuSans-6d" x="436.080078"/>
      <use xlink:href="#DejaVuSans-65" x="533.492188"/>
      <use xlink:href="#DejaVuSans-6e" x="595.015625"/>
      <use xlink:href="#DejaVuSans-74" x="658.394531"/>
      <use xlink:href="#DejaVuSans-73" x="697.603516"/>
     </g>
    </g>
   </g>
  </g>
  <g id="axes_2">
   <g id="matplotlib.axis_3">
    <g id="xtick_10">
     <g id="line2d_87">
      <defs>
       <path id="m89fb320283" d="M 0 0 
L 0 -3.5 
" style="stroke: #000000; stroke-width: 0.8"/>
      </defs>
      <g>
       <use xlink:href="#m89fb320283" x="57.6" y="41.472" style="stroke: #000000; stroke-width: 0.8"/>
      </g>
     </g>
     <g id="text_22">
      <!-- 0.0 -->
      <g transform="translate(49.648438 32.392313) scale(0.1 -0.1)">
       <use xlink:href="#DejaVuSans-30"/>
       <use xlink:href="#DejaVuSans-2e" x="63.623047"/>
       <use xlink:href="#DejaVuSans-30" x="95.410156"/>
      </g>
     </g>
    </g>
    <g id="xtick_11">
     <g id="line2d_88">
      <g>
       <use xlink:href="#m89fb320283" x="113.4" y="41.472" style="stroke: #000000; stroke-width: 0.8"/>
      </g>
     </g>
     <g id="text_23">
      <!-- 0.5 -->
      <g transform="translate(105.448438 32.392313) scale(0.1 -0.1)">
       <use xlink:href="#DejaVuSans-30"/>
       <use xlink:href="#DejaVuSans-2e" x="63.623047"/>
       <use xlink:href="#DejaVuSans-35" x="95.410156"/>
      </g>
     </g>
    </g>
    <g id="xtick_12">
     <g id="line2d_89">
      <g>
       <use xlink:href="#m89fb320283" x="169.2" y="41.472" style="stroke: #000000; stroke-width: 0.8"/>
      </g>
     </g>
     <g id="text_24">
      <!-- 1.0 -->
      <g transform="translate(161.248437 32.392313) scale(0.1 -0.1)">
       <use xlink:href="#DejaVuSans-31"/>
       <use xlink:href="#DejaVuSans-2e" x="63.623047"/>
       <use xlink:href="#DejaVuSans-30" x="95.410156"/>
      </g>
     </g>
    </g>
    <g id="xtick_13">
     <g id="line2d_90">
      <g>
       <use xlink:href="#m89fb320283" x="225" y="41.472" style="stroke: #000000; stroke-width: 0.8"/>
      </g>
     </g>
     <g id="text_25">
      <!-- 1.5 -->
      <g transform="translate(217.048437 32.392313) scale(0.1 -0.1)">
       <use xlink:href="#DejaVuSans-31"/>
       <use xlink:href="#DejaVuSans-2e" x="63.623047"/>
       <use xlink:href="#DejaVuSans-35" x="95.410156"/>
      </g>
     </g>
    </g>
    <g id="xtick_14">
     <g id="line2d_91">
      <g>
       <use xlink:href="#m89fb320283" x="280.8" y="41.472" style="stroke: #000000; stroke-width: 0.8"/>
      </g>
     </g>
     <g id="text_26">
      <!-- 2.0 -->
      <g transform="translate(272.848437 32.392313) scale(0.1 -0.1)">
       <use xlink:href="#DejaVuSans-32"/>
       <use xlink:href="#DejaVuSans-2e" x="63.623047"/>
       <use xlink:href="#DejaVuSans-30" x="95.410156"/>
      </g>
     </g>
    </g>
    <g id="xtick_15">
     <g id="line2d_92">
      <g>
       <use xlink:href="#m89fb320283" x="336.6" y="41.472" style="stroke: #000000; stroke-width: 0.8"/>
      </g>
     </g>
     <g id="text_27">
      <!-- 2.5 -->
      <g transform="translate(328.648438 32.392313) scale(0.1 -0.1)">
       <use xlink:href="#DejaVuSans-32"/>
       <use xlink:href="#DejaVuSans-2e" x="63.623047"/>
       <use xlink:href="#DejaVuSans-35" x="95.410156"/>
      </g>
     </g>
    </g>
    <g id="xtick_16">
     <g id="line2d_93">
      <g>
       <use xlink:href="#m89fb320283" x="392.4" y="41.472" style="stroke: #000000; stroke-width: 0.8"/>
      </g>
     </g>
     <g id="text_28">
      <!-- 3.0 -->
      <g transform="translate(384.448437 32.392313) scale(0.1 -0.1)">
       <use xlink:href="#DejaVuSans-33"/>
       <use xlink:href="#DejaVuSans-2e" x="63.623047"/>
       <use xlink:href="#DejaVuSans-30" x="95.410156"/>
      </g>
     </g>
    </g>
    <g id="text_29">
     <!-- Chromaticity frequency $f_{\xi}$ [GHz] -->
     <g transform="translate(156.06 20.793875) scale(0.1 -0.1)">
      <defs>
       <path id="DejaVuSans-66" d="M 2375 4863 
L 2375 4384 
L 1825 4384 
Q 1516 4384 1395 4259 
Q 1275 4134 1275 3809 
L 1275 3500 
L 2222 3500 
L 2222 3053 
L 1275 3053 
L 1275 0 
L 697 0 
L 697 3053 
L 147 3053 
L 147 3500 
L 697 3500 
L 697 3744 
Q 697 4328 969 4595 
Q 1241 4863 1831 4863 
L 2375 4863 
z
" transform="scale(0.015625)"/>
       <path id="DejaVuSans-71" d="M 947 1747 
Q 947 1113 1208 752 
Q 1469 391 1925 391 
Q 2381 391 2643 752 
Q 2906 1113 2906 1747 
Q 2906 2381 2643 2742 
Q 2381 3103 1925 3103 
Q 1469 3103 1208 2742 
Q 947 2381 947 1747 
z
M 2906 525 
Q 2725 213 2448 61 
Q 2172 -91 1784 -91 
Q 1150 -91 751 415 
Q 353 922 353 1747 
Q 353 2572 751 3078 
Q 1150 3584 1784 3584 
Q 2172 3584 2448 3432 
Q 2725 3281 2906 2969 
L 2906 3500 
L 3481 3500 
L 3481 -1331 
L 2906 -1331 
L 2906 525 
z
" transform="scale(0.015625)"/>
       <path id="DejaVuSans-Oblique-66" d="M 3059 4863 
L 2969 4384 
L 2419 4384 
Q 2106 4384 1964 4261 
Q 1822 4138 1753 3809 
L 1691 3500 
L 2638 3500 
L 2553 3053 
L 1606 3053 
L 1013 0 
L 434 0 
L 1031 3053 
L 481 3053 
L 563 3500 
L 1113 3500 
L 1159 3744 
Q 1278 4363 1576 4613 
Q 1875 4863 2516 4863 
L 3059 4863 
z
" transform="scale(0.015625)"/>
       <path id="DejaVuSans-Oblique-3be" d="M 2016 397 
Q 2428 394 2628 159 
Q 2844 -88 2772 -463 
Q 2700 -822 2422 -1072 
Q 2119 -1344 1609 -1344 
Q 1656 -1109 1700 -872 
Q 1913 -888 2072 -750 
Q 2194 -641 2216 -525 
Q 2247 -359 2175 -222 
Q 2100 -91 1922 -91 
Q -25 -91 241 1275 
Q 422 2213 1516 2488 
Q 663 2600 822 3413 
Q 941 4028 1678 4284 
L 1028 4284 
L 1141 4863 
L 3606 4863 
L 3494 4284 
Q 1528 4284 1350 3375 
Q 1234 2778 2881 2750 
L 2778 2219 
Q 1009 2288 819 1275 
Q 659 428 2016 397 
z
" transform="scale(0.015625)"/>
       <path id="DejaVuSans-7a" d="M 353 3500 
L 3084 3500 
L 3084 2975 
L 922 459 
L 3084 459 
L 3084 0 
L 275 0 
L 275 525 
L 2438 3041 
L 353 3041 
L 353 3500 
z
" transform="scale(0.015625)"/>
      </defs>
      <use xlink:href="#DejaVuSans-43" transform="translate(0 0.015625)"/>
      <use xlink:href="#DejaVuSans-68" transform="translate(69.824219 0.015625)"/>
      <use xlink:href="#DejaVuSans-72" transform="translate(133.203125 0.015625)"/>
      <use xlink:href="#DejaVuSans-6f" transform="translate(174.316406 0.015625)"/>
      <use xlink:href="#DejaVuSans-6d" transform="translate(235.498047 0.015625)"/>
      <use xlink:href="#DejaVuSans-61" transform="translate(332.910156 0.015625)"/>
      <use xlink:href="#DejaVuSans-74" transform="translate(394.189453 0.015625)"/>
      <use xlink:href="#DejaVuSans-69" transform="translate(433.398438 0.015625)"/>
      <use xlink:href="#DejaVuSans-63" transform="translate(461.181641 0.015625)"/>
      <use xlink:href="#DejaVuSans-69" transform="translate(516.162109 0.015625)"/>
      <use xlink:href="#DejaVuSans-74" transform="translate(543.945312 0.015625)"/>
      <use xlink:href="#DejaVuSans-79" transform="translate(583.154297 0.015625)"/>
      <use xlink:href="#DejaVuSans-20" transform="translate(642.333984 0.015625)"/>
      <use xlink:href="#DejaVuSans-66" transform="translate(674.121094 0.015625)"/>
      <use xlink:href="#DejaVuSans-72" transform="translate(709.326172 0.015625)"/>
      <use xlink:href="#DejaVuSans-65" transform="translate(750.439453 0.015625)"/>
      <use xlink:href="#DejaVuSans-71" transform="translate(811.962891 0.015625)"/>
      <use xlink:href="#DejaVuSans-75" transform="translate(875.439453 0.015625)"/>
      <use xlink:href="#DejaVuSans-65" transform="translate(938.818359 0.015625)"/>
      <use xlink:href="#DejaVuSans-6e" transform="translate(1000.341797 0.015625)"/>
      <use xlink:href="#DejaVuSans-63" transform="translate(1063.720703 0.015625)"/>
      <use xlink:href="#DejaVuSans-79" transform="translate(1118.701172 0.015625)"/>
      <use xlink:href="#DejaVuSans-20" transform="translate(1177.880859 0.015625)"/>
      <use xlink:href="#DejaVuSans-Oblique-66" transform="translate(1209.667969 0.015625)"/>
      <use xlink:href="#DejaVuSans-Oblique-3be" transform="translate(1244.873047 -16.390625) scale(0.7)"/>
      <use xlink:href="#DejaVuSans-20" transform="translate(1286.640625 0.015625)"/>
      <use xlink:href="#DejaVuSans-5b" transform="translate(1318.427734 0.015625)"/>
      <use xlink:href="#DejaVuSans-47" transform="translate(1357.441406 0.015625)"/>
      <use xlink:href="#DejaVuSans-48" transform="translate(1434.931641 0.015625)"/>
      <use xlink:href="#DejaVuSans-7a" transform="translate(1510.126953 0.015625)"/>
      <use xlink:href="#DejaVuSans-5d" transform="translate(1562.617188 0.015625)"/>
     </g>
    </g>
   </g>
   <g id="line2d_94">
    <path d="M 414.72 307.584 
L 405.792 307.584 
L 396.864 307.584 
L 387.936 307.584 
L 379.008 301.264851 
L 370.08 298.54145 
L 361.152 307.584 
L 352.224 302.391062 
L 343.296 307.584 
L 334.368 307.584 
L 325.44 295.773065 
L 316.512 258.203764 
L 307.584 246.574639 
L 298.656 256.373411 
L 289.728 258.997017 
L 280.8 262.401374 
L 271.872 265.994299 
L 262.944 233.277321 
L 254.016 217.503457 
L 245.088 198.829869 
L 236.16 182.297652 
L 227.232 177.573776 
L 218.304 171.523293 
L 209.376 149.156952 
L 200.448 143.950168 
L 191.52 130.942691 
L 182.592 122.172885 
L 173.664 114.377774 
L 164.736 110.486625 
L 155.808 112.024258 
L 146.88 121.566157 
L 137.952 140.660088 
L 129.024 161.595407 
L 120.096 173.565221 
L 111.168 181.913203 
L 102.24 188.456835 
L 93.312 193.92796 
L 84.384 200.266221 
L 75.456 214.858833 
L 66.528 248.72619 
L 57.6 307.584 
" clip-path="url(#p2ce085072b)" style="fill: none; stroke: #000000; stroke-opacity: 0; stroke-width: 1.5; stroke-linecap: square"/>
   </g>
   <g id="patch_8">
    <path d="M 57.6 307.584 
L 57.6 41.472 
" style="fill: none; stroke: #000000; stroke-width: 0.8; stroke-linejoin: miter; stroke-linecap: square"/>
   </g>
   <g id="patch_9">
    <path d="M 414.72 307.584 
L 414.72 41.472 
" style="fill: none; stroke: #000000; stroke-width: 0.8; stroke-linejoin: miter; stroke-linecap: square"/>
   </g>
   <g id="patch_10">
    <path d="M 57.6 307.584 
L 414.72 307.584 
" style="fill: none; stroke: #000000; stroke-width: 0.8; stroke-linejoin: miter; stroke-linecap: square"/>
   </g>
   <g id="patch_11">
    <path d="M 57.6 41.472 
L 414.72 41.472 
" style="fill: none; stroke: #000000; stroke-width: 0.8; stroke-linejoin: miter; stroke-linecap: square"/>
   </g>
  </g>
 </g>
 <defs>
  <clipPath id="p2ce085072b">
   <rect x="57.6" y="41.472" width="357.12" height="266.112"/>
  </clipPath>
 </defs>
</svg>
